<svg xmlns="http://www.w3.org/2000/svg" viewBox="0 0 279.32 29.73"><defs><style>.cls-1{fill:#fb3f5f;}</style></defs><g id="app-title"><path class="cls-1" d="M7.1,23.07a13.46,13.46,0,0,1-2.76-.27,6.64,6.64,0,0,1-2.28-.9A4.29,4.29,0,0,1,.54,20.21,5.93,5.93,0,0,1,0,17.54a5.38,5.38,0,0,1,.62-2.63,4.2,4.2,0,0,1,1.91-1.73,7.6,7.6,0,0,1,3.23-.6,9.81,9.81,0,0,1,2.11.22,8.45,8.45,0,0,1,1.84.61,4.78,4.78,0,0,1,1.3.83l.19,2.3a5.89,5.89,0,0,0-1.54-.6,7.77,7.77,0,0,0-1.92-.23,4.31,4.31,0,0,0-2.28.47,1.6,1.6,0,0,0-.72,1.45,1.75,1.75,0,0,0,.35,1.09,2.24,2.24,0,0,0,.94.74,3.11,3.11,0,0,0,1.23.25,8,8,0,0,0,2.29-.22.88.88,0,0,0,.66-.9V12.64a2.42,2.42,0,0,0-1-2.13,4.62,4.62,0,0,0-2.67-.65,8.56,8.56,0,0,0-2.83.49,8,8,0,0,0-2.32,1.2V7.33A9.77,9.77,0,0,1,4,6.37a15.64,15.64,0,0,1,3.92-.45,11.76,11.76,0,0,1,1.69.13,9,9,0,0,1,1.86.46,5.84,5.84,0,0,1,1.71,1,4.79,4.79,0,0,1,1.26,1.63,5.62,5.62,0,0,1,.48,2.46l0,7.65A2.88,2.88,0,0,1,14,21.46a5.82,5.82,0,0,1-2.67,1.23A20.24,20.24,0,0,1,7.1,23.07Z"/><path class="cls-1" d="M26.75,23a10.26,10.26,0,0,1-3.26-.51A8.11,8.11,0,0,1,20.77,21a7.06,7.06,0,0,1-1.86-2.59,9.18,9.18,0,0,1-.67-3.65,10.59,10.59,0,0,1,.64-3.86,7.48,7.48,0,0,1,1.78-2.73A7.15,7.15,0,0,1,23.33,6.5,9.88,9.88,0,0,1,26.72,6a14.12,14.12,0,0,1,2.7.27A11.41,11.41,0,0,1,31.87,7v4.09a20.89,20.89,0,0,0-2.19-.85,7.46,7.46,0,0,0-2.19-.33,4.92,4.92,0,0,0-3.25,1A4,4,0,0,0,23,14.18a5.23,5.23,0,0,0,1.09,3.61A4.64,4.64,0,0,0,27.71,19,6.41,6.41,0,0,0,30,18.59a13.79,13.79,0,0,0,1.9-.86v4.06A10.47,10.47,0,0,1,26.75,23Z"/><path class="cls-1" d="M35.23,22.59V8.1a6.54,6.54,0,0,1,1.6-.88,20.27,20.27,0,0,1,2.64-.9,11.33,11.33,0,0,1,3-.4,9.8,9.8,0,0,1,2.37.22,3.65,3.65,0,0,1,1.31.58v3.49A8.36,8.36,0,0,0,44.77,10c-.56,0-1.13-.07-1.73-.08s-1.16,0-1.7,0a10.66,10.66,0,0,0-1.34.13V22.59Z"/><path class="cls-1" d="M52.45,28.86a7.4,7.4,0,0,1-1.57-.16,5.62,5.62,0,0,1-1.31-.41V24.42a7.06,7.06,0,0,0,1,.27,5.64,5.64,0,0,0,.93.08,2.56,2.56,0,0,0,1.39-.37,2.66,2.66,0,0,0,1-1.25,9.46,9.46,0,0,0,.61-2.38l.1,2.72-7-17.09h5.48l3.68,11.36h-.48L59.9,6.4H65L58.66,22.85a14.34,14.34,0,0,1-1.88,3.55,6.83,6.83,0,0,1-2.09,1.89A4.78,4.78,0,0,1,52.45,28.86Z"/><path class="cls-1" d="M72.64,22.59H67.9V.29h4.74Z"/><path class="cls-1" d="M76.86,4.19V.51h4.93V4.19Zm.1,18.4v-16h4.77l0,16Z"/><path class="cls-1" d="M93.6,23a10.37,10.37,0,0,1-3.27-.51A8.21,8.21,0,0,1,87.61,21a7.15,7.15,0,0,1-1.85-2.59,9.18,9.18,0,0,1-.67-3.65,10.59,10.59,0,0,1,.64-3.86A7.46,7.46,0,0,1,87.5,8.13,7.31,7.31,0,0,1,90.17,6.5,10,10,0,0,1,93.57,6a14.2,14.2,0,0,1,2.7.27A11.59,11.59,0,0,1,98.72,7v4.09a20.89,20.89,0,0,0-2.19-.85,7.47,7.47,0,0,0-2.2-.33,4.91,4.91,0,0,0-3.24,1,4,4,0,0,0-1.24,3.28,5.28,5.28,0,0,0,1.09,3.61A4.66,4.66,0,0,0,94.56,19a6.41,6.41,0,0,0,2.29-.42,14.36,14.36,0,0,0,1.9-.86v4.06a11.57,11.57,0,0,1-2.33.9A11.34,11.34,0,0,1,93.6,23Z"/><path class="cls-1" d="M106.88,23.07a10.26,10.26,0,0,1-3-.37,22.47,22.47,0,0,1-2.32-.81V17.7c.45.29,1,.6,1.5.91a8.65,8.65,0,0,0,1.84.75,7.77,7.77,0,0,0,2.13.29,2.55,2.55,0,0,0,1.62-.4,1.24,1.24,0,0,0,.46-1,1,1,0,0,0-.48-.88,4.42,4.42,0,0,0-1.25-.56c-.51-.15-1-.29-1.63-.41a8.62,8.62,0,0,1-1.54-.5,4.68,4.68,0,0,1-1.37-.91,4.33,4.33,0,0,1-1-1.43,5.23,5.23,0,0,1-.37-2.06,5.17,5.17,0,0,1,.61-2.61,5,5,0,0,1,1.6-1.68,6.93,6.93,0,0,1,2.15-.91,8.68,8.68,0,0,1,2.24-.24,12.3,12.3,0,0,1,3.15.43,9.84,9.84,0,0,1,2.13,1V11.2c-.73-.41-1.45-.78-2.16-1.14a5.51,5.51,0,0,0-2.45-.52,3.15,3.15,0,0,0-1.79.38,1.19,1.19,0,0,0-.55,1,1.27,1.27,0,0,0,.37,1,2.45,2.45,0,0,0,1,.56c.4.14.85.28,1.34.4s1.08.29,1.65.47a6.55,6.55,0,0,1,1.6.77,3.59,3.59,0,0,1,1.21,1.37,5,5,0,0,1,.47,2.32A4.65,4.65,0,0,1,113,20.91a5.58,5.58,0,0,1-2.64,1.67A11.84,11.84,0,0,1,106.88,23.07Z"/><path class="cls-1" d="M117.5,22.59V0h4.8V9.6l-2-1.09a10.94,10.94,0,0,1,3-1.84A9.25,9.25,0,0,1,126.88,6a7.69,7.69,0,0,1,3.1.58,4.34,4.34,0,0,1,2.1,1.87,7.13,7.13,0,0,1,.75,3.57V22.59h-4.77V13a3,3,0,0,0-.78-2.32A3.28,3.28,0,0,0,125,9.92a5.63,5.63,0,0,0-1.52.21,3.36,3.36,0,0,0-1.17.53l-.06,11.93Z"/><path class="cls-1" d="M137.05,22.59V8.1a6.74,6.74,0,0,1,1.6-.88,20.27,20.27,0,0,1,2.64-.9,11.4,11.4,0,0,1,3-.4,9.76,9.76,0,0,1,2.36.22,3.71,3.71,0,0,1,1.32.58v3.49a8.51,8.51,0,0,0-1.38-.19c-.55,0-1.13-.07-1.73-.08s-1.16,0-1.69,0a10.85,10.85,0,0,0-1.35.13V22.59Z"/><path class="cls-1" d="M150.75,4.19V.51h4.93V4.19Zm.1,18.4v-16h4.76l0,16Z"/><path class="cls-1" d="M174.94,11.71V22.59h-4.77V12.67a3.37,3.37,0,0,0-.17-1.12,2.53,2.53,0,0,0-.53-.88,2.32,2.32,0,0,0-1-.57A4.57,4.57,0,0,0,167,9.89a5.27,5.27,0,0,0-1.36.17,5.94,5.94,0,0,0-1,.37V22.59H159.9V7.78a10.39,10.39,0,0,1,1.6-.66,20.66,20.66,0,0,1,2.18-.59c.79-.17,1.58-.31,2.38-.42A18.13,18.13,0,0,1,168.29,6a10.51,10.51,0,0,1,3.66.56,4.32,4.32,0,0,1,2.24,1.81A6.55,6.55,0,0,1,174.94,11.71Zm-4.89-2.85a10.39,10.39,0,0,1,2.4-1.52,16,16,0,0,1,3-1A12.6,12.6,0,0,1,178.33,6a10.57,10.57,0,0,1,3.67.56,4.32,4.32,0,0,1,2.24,1.81,6.55,6.55,0,0,1,.75,3.39V22.59h-4.77V12.67a3.65,3.65,0,0,0-.17-1.12,2.53,2.53,0,0,0-.53-.88,2.38,2.38,0,0,0-1-.57,4.57,4.57,0,0,0-1.47-.21,4.22,4.22,0,0,0-1.36.21,2.9,2.9,0,0,0-1,.52Z"/><path class="cls-1" d="M198,23.07q-.48,0-1.41-.09a8.82,8.82,0,0,1-1.92-.44,4.19,4.19,0,0,1-1.69-1l1-1.5v8.38h-4.68V9.82A2.75,2.75,0,0,1,189.82,8a4.57,4.57,0,0,1,1.67-1.21,10,10,0,0,1,2.44-.72,17.71,17.71,0,0,1,3-.24,10.53,10.53,0,0,1,4.27.81,6.1,6.1,0,0,1,2.88,2.74,11.14,11.14,0,0,1,1,5.25,10.5,10.5,0,0,1-.87,4.4,6.46,6.46,0,0,1-6.3,4Zm-1.41-3.84a4.4,4.4,0,0,0,2.11-.45,2.81,2.81,0,0,0,1.27-1.48,7.45,7.45,0,0,0,.43-2.8A8.54,8.54,0,0,0,200,12a2.94,2.94,0,0,0-1.1-1.58,3.71,3.71,0,0,0-2.2-.56,5.74,5.74,0,0,0-2.19.3c-.44.2-.65.46-.65.78v7.62a4.49,4.49,0,0,0,1.34.51A6,6,0,0,0,196.54,19.23Z"/><path class="cls-1" d="M224.7,23.07A21.63,21.63,0,0,1,222,22.9a9,9,0,0,1-2.4-.64A4.24,4.24,0,0,1,217.92,21a3.35,3.35,0,0,1-.64-2.13V.42H222V9.25l-.9-1.51a4.36,4.36,0,0,1,1.47-1.07,8.2,8.2,0,0,1,1.83-.56A10.17,10.17,0,0,1,225.89,6a6.83,6.83,0,0,1,5.45,2.16q1.88,2.16,1.87,6.32a11.42,11.42,0,0,1-.64,4.1,6.38,6.38,0,0,1-1.79,2.65,6.86,6.86,0,0,1-2.69,1.44A12,12,0,0,1,224.7,23.07Zm-.06-4a3.91,3.91,0,0,0,2.24-.56,3.17,3.17,0,0,0,1.2-1.55,6.63,6.63,0,0,0,.36-2.27,7.11,7.11,0,0,0-.48-2.91,3.14,3.14,0,0,0-1.31-1.57,3.75,3.75,0,0,0-1.92-.48,6.68,6.68,0,0,0-1.4.16,4.7,4.7,0,0,0-1.38.51V17.6a1.19,1.19,0,0,0,.35.9,2.24,2.24,0,0,0,1,.46A5.8,5.8,0,0,0,224.64,19.1Z"/><path class="cls-1" d="M241.25,22.59h-4.74V.29h4.74Z"/><path class="cls-1" d="M252.77,23.07c-2.74,0-4.79-.73-6.17-2.19s-2.06-3.61-2.06-6.45q0-4.57,2.1-6.57c1.39-1.34,3.44-2,6.13-2a10.13,10.13,0,0,1,4.55.91,6.06,6.06,0,0,1,2.79,2.8,10.87,10.87,0,0,1,.94,4.86q0,4.26-2.14,6.45A8.21,8.21,0,0,1,252.77,23.07Zm0-3.81a3.24,3.24,0,0,0,2-.56,3.33,3.33,0,0,0,1.19-1.63,7.72,7.72,0,0,0,.4-2.64,8.26,8.26,0,0,0-.4-2.83,2.87,2.87,0,0,0-1.2-1.5,3.86,3.86,0,0,0-1.95-.47,3.69,3.69,0,0,0-2,.48,2.81,2.81,0,0,0-1.13,1.52,8.54,8.54,0,0,0-.37,2.8,6.36,6.36,0,0,0,.84,3.63A3,3,0,0,0,252.77,19.26Z"/><path class="cls-1" d="M270.56,23.07a8.54,8.54,0,0,1-3.8-1,6.17,6.17,0,0,1-2.46-2.64,9.68,9.68,0,0,1-.88-4.4,13,13,0,0,1,.67-4.47A6.55,6.55,0,0,1,266,7.78a7.09,7.09,0,0,1,2.9-1.41A15.73,15.73,0,0,1,272.64,6a11,11,0,0,1,3.52.51,5.3,5.3,0,0,1,2.33,1.48,3.46,3.46,0,0,1,.83,2.36V22.78a7.79,7.79,0,0,1-.54,3A5.59,5.59,0,0,1,277.17,28a7.27,7.27,0,0,1-2.6,1.33,12.34,12.34,0,0,1-3.5.45,18.48,18.48,0,0,1-3.67-.31,8.18,8.18,0,0,1-2.32-.75V24.48q.48.19,1.41.51a14.63,14.63,0,0,0,2.08.53,12.89,12.89,0,0,0,2.31.21,5.2,5.2,0,0,0,2.32-.42,2.36,2.36,0,0,0,1.13-1.12,3.72,3.72,0,0,0,.32-1.6V20l.93.67a5.71,5.71,0,0,1-1.22,1.28,5.2,5.2,0,0,1-1.64.85A7.14,7.14,0,0,1,270.56,23.07Zm1.21-3.58a6.2,6.2,0,0,0,1.54-.18,5.35,5.35,0,0,0,1.34-.53V11.36a1.32,1.32,0,0,0-.38-1,2,2,0,0,0-1-.48,5.37,5.37,0,0,0-1.22-.13,3.76,3.76,0,0,0-2.32.64,3.48,3.48,0,0,0-1.21,1.77,8.24,8.24,0,0,0-.37,2.58,5.59,5.59,0,0,0,1,3.49A3.14,3.14,0,0,0,271.77,19.49Z"/></g></svg>